<?xml version="1.0" encoding="utf-8"?>
<!-- Generator: Adobe Illustrator 24.3.0, SVG Export Plug-In . SVG Version: 6.00 Build 0)  -->
<svg version="1.1" id="Layer_1" xmlns="http://www.w3.org/2000/svg" xmlns:xlink="http://www.w3.org/1999/xlink" x="0px" y="0px"
	 viewBox="0 0 131.6 32" style="enable-background:new 0 0 131.6 32;" xml:space="preserve">
<style type="text/css">
	.st0{fill:#015EDB;}
	.st1{fill:url(#SVGID_1_);}
</style>
<g>
	<path class="st0" d="M16.7,2.5c-8.8,0-16,5.6-16,12.5s7.2,12.5,16,12.5c1.4,0,2.8-0.2,4.1-0.4l4.9,2.4v-4.2c4.2-2.3,7-6,7-10.3
		C32.7,8.1,25.5,2.5,16.7,2.5z M15.7,22c0,0-3.9-1.5-8-1.5V10c4.1,0,8,1.5,8,1.5V22z M25.7,20.5c-4.1,0-8,1.5-8,1.5V11.5
		c0,0,3.9-1.5,8-1.5V20.5z"/>
	
		<linearGradient id="SVGID_1_" gradientUnits="userSpaceOnUse" x1="0.7195" y1="21.15" x2="29.8195" y2="21.15" gradientTransform="matrix(1 0 0 -1 0 34)">
		<stop  offset="0" style="stop-color:#03AC6D"/>
		<stop  offset="0.4934" style="stop-color:#FAB23B"/>
		<stop  offset="1" style="stop-color:#EC355E"/>
	</linearGradient>
	<path class="st1" d="M1.7,16c0-6.9,7.2-12.5,16-12.5c4.8,0,9.2,1.7,12.1,4.3c-2.9-3.2-7.7-5.3-13.1-5.3c-8.8,0-16,5.6-16,12.5
		c0,3.1,1.5,6,3.9,8.2C2.8,21.1,1.7,18.7,1.7,16z"/>
	<g>
		<path class="st0" d="M50,9.9c-0.4-0.6-1-1-1.7-1.3s-1.3-0.4-2-0.4c-0.8,0-1.6,0.2-2.3,0.5C43.4,9,42.9,9.4,42.4,10
			c-0.5,0.5-0.9,1.1-1.1,1.9c-0.3,0.7-0.4,1.5-0.4,2.3c0,0.9,0.1,1.7,0.4,2.4c0.3,0.7,0.6,1.3,1.1,1.9c0.5,0.5,1,0.9,1.7,1.2
			c0.7,0.3,1.4,0.4,2.2,0.4c0.9,0,1.6-0.2,2.3-0.5s1.2-0.8,1.6-1.3l2.3,1.6c-0.7,0.9-1.6,1.6-2.6,2.1s-2.2,0.7-3.6,0.7
			c-1.3,0-2.4-0.2-3.5-0.6c-1-0.4-2-1-2.7-1.7c-0.8-0.7-1.3-1.6-1.8-2.7c-0.4-1-0.6-2.2-0.6-3.4c0-1.3,0.2-2.4,0.7-3.5
			c0.4-1,1.1-1.9,1.8-2.6C41,7.5,41.9,6.9,43,6.5c1.1-0.4,2.2-0.6,3.4-0.6c0.5,0,1,0,1.6,0.1s1.1,0.2,1.6,0.5c0.5,0.2,1,0.5,1.4,0.8
			c0.5,0.3,0.8,0.7,1.2,1.1L50,9.9z"/>
		<path class="st0" d="M53.7,5.1h2.7v17.1h-2.7V5.1z"/>
		<path class="st0" d="M65.2,20.7L65.2,20.7c-0.3,0.5-0.8,0.9-1.4,1.2c-0.6,0.3-1.3,0.5-2.1,0.5c-0.4,0-0.9-0.1-1.4-0.2
			s-0.9-0.3-1.3-0.6c-0.4-0.3-0.7-0.6-1-1s-0.4-1-0.4-1.6c0-0.8,0.2-1.5,0.7-1.9c0.5-0.5,1.1-0.9,1.8-1.1c0.7-0.3,1.5-0.4,2.4-0.5
			s1.7-0.1,2.6-0.1V15c0-0.7-0.2-1.2-0.7-1.5c-0.5-0.3-1.1-0.5-1.8-0.5c-0.6,0-1.1,0.1-1.7,0.4c-0.5,0.2-1,0.5-1.3,0.9l-1.4-1.7
			c0.6-0.6,1.3-1,2.1-1.3s1.6-0.4,2.5-0.4c1,0,1.8,0.1,2.4,0.4c0.6,0.3,1.1,0.6,1.5,1.1c0.4,0.4,0.6,0.9,0.8,1.5
			c0.1,0.5,0.2,1.1,0.2,1.6v6.6h-2.5V20.7z M65.2,17.2h-0.6c-0.4,0-0.9,0-1.4,0.1c-0.5,0-0.9,0.1-1.3,0.2c-0.4,0.1-0.7,0.3-1,0.5
			s-0.4,0.6-0.4,1c0,0.3,0.1,0.5,0.2,0.6c0.1,0.2,0.3,0.3,0.4,0.4c0.2,0.1,0.4,0.2,0.6,0.2c0.2,0,0.5,0.1,0.7,0.1
			c0.9,0,1.6-0.2,2.1-0.7s0.7-1.2,0.7-2V17.2z"/>
		<path class="st0" d="M76.2,14.2c-0.2-0.3-0.6-0.6-1-0.8S74.3,13,73.8,13c-0.4,0-0.8,0.1-1.2,0.3c-0.4,0.2-0.5,0.5-0.5,0.9
			s0.2,0.7,0.6,0.9s1,0.4,1.8,0.5c0.4,0.1,0.8,0.2,1.2,0.4c0.4,0.2,0.8,0.4,1.1,0.6c0.3,0.2,0.6,0.6,0.8,0.9
			c0.2,0.4,0.3,0.8,0.3,1.3c0,0.7-0.1,1.2-0.4,1.7c-0.2,0.5-0.6,0.8-1,1.1c-0.4,0.3-0.9,0.5-1.4,0.6c-0.6,0.1-1.1,0.2-1.7,0.2
			c-0.8,0-1.7-0.2-2.5-0.5s-1.5-0.8-2-1.3l1.8-1.6c0.3,0.4,0.7,0.7,1.2,1s1,0.4,1.6,0.4c0.2,0,0.4,0,0.6-0.1c0.2,0,0.4-0.1,0.6-0.2
			s0.3-0.2,0.4-0.4c0.1-0.2,0.2-0.4,0.2-0.6c0-0.5-0.2-0.8-0.6-1s-1-0.4-1.9-0.6c-0.4-0.1-0.8-0.2-1.2-0.4c-0.4-0.1-0.7-0.3-1-0.6
			c-0.3-0.2-0.5-0.5-0.7-0.9c-0.2-0.3-0.3-0.8-0.3-1.3c0-0.6,0.1-1.1,0.4-1.6c0.2-0.4,0.6-0.8,1-1.1s0.9-0.5,1.4-0.6s1-0.2,1.6-0.2
			c0.8,0,1.6,0.1,2.3,0.4c0.7,0.3,1.3,0.7,1.8,1.2L76.2,14.2z"/>
		<path class="st0" d="M86.2,14.2c-0.2-0.3-0.6-0.6-1-0.8S84.3,13,83.8,13c-0.4,0-0.8,0.1-1.2,0.3c-0.4,0.2-0.5,0.5-0.5,0.9
			s0.2,0.7,0.6,0.9s1,0.4,1.8,0.5c0.4,0.1,0.8,0.2,1.2,0.4c0.4,0.2,0.8,0.4,1.1,0.6c0.3,0.2,0.6,0.6,0.8,0.9
			c0.2,0.4,0.3,0.8,0.3,1.3c0,0.7-0.1,1.2-0.4,1.7c-0.2,0.5-0.6,0.8-1,1.1c-0.4,0.3-0.9,0.5-1.4,0.6c-0.6,0.1-1.1,0.2-1.7,0.2
			c-0.8,0-1.7-0.2-2.5-0.5s-1.5-0.8-2-1.3l1.8-1.6c0.3,0.4,0.7,0.7,1.2,1s1,0.4,1.6,0.4c0.2,0,0.4,0,0.6-0.1c0.2,0,0.4-0.1,0.6-0.2
			s0.3-0.2,0.4-0.4c0.1-0.2,0.2-0.4,0.2-0.6c0-0.5-0.2-0.8-0.6-1s-1-0.4-1.9-0.6c-0.4-0.1-0.8-0.2-1.2-0.4c-0.4-0.1-0.7-0.3-1-0.6
			c-0.3-0.2-0.5-0.5-0.7-0.9c-0.2-0.3-0.3-0.8-0.3-1.3c0-0.6,0.1-1.1,0.4-1.6c0.2-0.4,0.6-0.8,1-1.1s0.9-0.5,1.4-0.6s1-0.2,1.6-0.2
			c0.8,0,1.6,0.1,2.3,0.4c0.7,0.3,1.3,0.7,1.8,1.2L86.2,14.2z"/>
		<path class="st0" d="M95.7,6.1h2.5l6.9,16h-3.3l-1.5-3.7h-7l-1.4,3.7h-3.2L95.7,6.1z M99.3,16l-2.5-6.5L94.3,16H99.3z"/>
		<path class="st0" d="M108.8,11.3v1.5h0.1c0.1-0.2,0.3-0.4,0.5-0.6c0.2-0.2,0.5-0.4,0.8-0.6c0.3-0.2,0.7-0.3,1.1-0.4
			c0.4-0.1,0.8-0.2,1.3-0.2c0.8,0,1.5,0.1,2.1,0.4c0.6,0.3,1.2,0.7,1.7,1.2s0.8,1.1,1.1,1.8c0.3,0.7,0.4,1.4,0.4,2.2
			c0,0.8-0.1,1.6-0.4,2.3c-0.2,0.7-0.6,1.3-1.1,1.8s-1,0.9-1.7,1.2c-0.7,0.3-1.4,0.5-2.2,0.5c-0.8,0-1.5-0.2-2.1-0.5
			s-1.1-0.7-1.5-1.3l0,0v6.9h-2.7V11.3H108.8z M115.1,16.7c0-0.4-0.1-0.8-0.2-1.3c-0.1-0.4-0.3-0.8-0.6-1.1c-0.3-0.3-0.6-0.6-1-0.8
			s-0.9-0.3-1.4-0.3s-0.9,0.1-1.3,0.3s-0.7,0.5-1,0.8s-0.5,0.7-0.6,1.1c-0.1,0.4-0.2,0.8-0.2,1.3c0,0.4,0.1,0.8,0.2,1.3
			c0.1,0.4,0.4,0.8,0.6,1.1c0.3,0.3,0.6,0.6,1,0.8c0.4,0.2,0.8,0.3,1.3,0.3s1-0.1,1.4-0.3c0.4-0.2,0.7-0.5,1-0.8s0.4-0.7,0.6-1.1
			S115.1,17.1,115.1,16.7z"/>
		<g>
			<path class="st0" d="M121.8,11.3v1.5h0.1c0.1-0.2,0.3-0.4,0.5-0.6c0.2-0.2,0.5-0.4,0.8-0.6c0.3-0.2,0.7-0.3,1.1-0.4
				c0.4-0.1,0.8-0.2,1.3-0.2c0.8,0,1.5,0.1,2.1,0.4c0.6,0.3,1.2,0.7,1.7,1.2s0.8,1.1,1.1,1.8s0.4,1.4,0.4,2.2c0,0.8-0.1,1.6-0.4,2.3
				c-0.2,0.7-0.6,1.3-1.1,1.8s-1,0.9-1.7,1.2c-0.7,0.3-1.4,0.5-2.2,0.5c-0.8,0-1.5-0.2-2.1-0.5s-1.1-0.7-1.5-1.3l0,0v6.9h-2.7V11.3
				H121.8z M128.1,16.7c0-0.4-0.1-0.8-0.2-1.3c-0.1-0.4-0.3-0.8-0.6-1.1c-0.3-0.3-0.6-0.6-1-0.8s-0.9-0.3-1.4-0.3s-0.9,0.1-1.3,0.3
				s-0.7,0.5-1,0.8s-0.5,0.7-0.6,1.1c-0.1,0.4-0.2,0.8-0.2,1.3c0,0.4,0.1,0.8,0.2,1.3c0.1,0.4,0.4,0.8,0.6,1.1
				c0.3,0.3,0.6,0.6,1,0.8c0.4,0.2,0.8,0.3,1.3,0.3s1-0.1,1.4-0.3c0.4-0.2,0.7-0.5,1-0.8s0.4-0.7,0.6-1.1S128.1,17.1,128.1,16.7z"/>
		</g>
	</g>
</g>
</svg>
