<svg id="Isolation_Mode" data-name="Isolation Mode" xmlns="http://www.w3.org/2000/svg" xmlns:xlink="http://www.w3.org/1999/xlink" viewBox="0 0 236.06 299.33"><defs><style>.cls-1{fill:none;}.cls-2{fill:#0990ff;}.cls-3{clip-path:url(#clip-path);}.cls-4{fill:#0a90ff;}.cls-5{fill:#0a91ff;}.cls-6{fill:#0b91ff;}.cls-7{fill:#0c91ff;}.cls-8{fill:#0d92ff;}.cls-9{fill:#0e92ff;}.cls-10{fill:#0f93ff;}.cls-11{fill:#1093ff;}.cls-12{fill:#1194ff;}.cls-13{fill:#1294ff;}.cls-14{fill:#1395ff;}.cls-15{fill:#1495ff;}.cls-16{fill:#1595ff;}.cls-17{fill:#1696ff;}.cls-18{fill:#1796ff;}.cls-19{fill:#1897ff;}.cls-20{fill:#1997ff;}.cls-21{fill:#1a98ff;}.cls-22{fill:#1b98ff;}.cls-23{fill:#1c99ff;}.cls-24{fill:#1d99ff;}.cls-25{fill:#1e9aff;}.cls-26{fill:#1f9aff;}.cls-27{fill:#209aff;}.cls-28{fill:#209bff;}.cls-29{fill:#219bff;}.cls-30{fill:#229bff;}.cls-31{fill:#229cff;}.cls-32{fill:#239cff;}.cls-33{fill:#249cff;}.cls-34{fill:#249dff;}.cls-35{fill:#259dff;}.cls-36{fill:#269dff;}.cls-37{fill:#269eff;}.cls-38{fill:#279eff;}.cls-39{fill:#289eff;}.cls-40{fill:#299eff;}.cls-41{fill:#299fff;}.cls-42{fill:#2a9fff;}.cls-43{fill:#2b9fff;}.cls-44{fill:#2ba0ff;}.cls-45{fill:#2ca0ff;}.cls-46{fill:#2da0ff;}.cls-47{fill:#2da1ff;}.cls-48{fill:#2ea1ff;}.cls-49{fill:#2fa1ff;}.cls-50{fill:#2fa2ff;}.cls-51{fill:#30a2ff;}.cls-52{fill:#31a2ff;}.cls-53{fill:#32a3ff;}.cls-54{fill:#33a3ff;}.cls-55{fill:#34a4ff;}.cls-56{fill:#35a4ff;}.cls-57{fill:#36a5ff;}.cls-58{fill:#37a5ff;}.cls-59{fill:#38a6ff;}.cls-60{fill:#39a6ff;}.cls-61{fill:#3aa6ff;}.cls-62{fill:#3ba7ff;}.cls-63{fill:#3ca7ff;}.cls-64{fill:#3da8ff;}.cls-65{fill:#3ea8ff;}.cls-66{fill:#3fa9ff;}.cls-67{fill:#40a9ff;}.cls-68{fill:#41aaff;}.cls-69{fill:#42aaff;}.cls-70{fill:#43abff;}.cls-71{fill:#44abff;}.cls-72{fill:#45abff;}.cls-73{fill:#45acff;}.cls-74{fill:#46acff;}.cls-75{fill:#47acff;}.cls-76{fill:#47adff;}.cls-77{fill:#48adff;}.cls-78{fill:#49adff;}.cls-79{fill:#49aeff;}.cls-80{fill:#4aaeff;}.cls-81{fill:#4baeff;}.cls-82{fill:#4bafff;}.cls-83{fill:#4cafff;}.cls-84{fill:#4dafff;}.cls-85{fill:#4eafff;}.cls-86{fill:#4eb0ff;}.cls-87{fill:#4fb0ff;}.cls-88{fill:#50b0ff;}.cls-89{fill:#50b1ff;}.cls-90{fill:#51b1ff;}.cls-91{fill:#52b1ff;}.cls-92{fill:#52b2ff;}.cls-93{fill:#53b2ff;}</style><clipPath id="clip-path" transform="translate(11.31 -1)"><path class="cls-1" d="M155.45,191.71V153l-44.51-24.43c5.73-2.7,11.38-5.31,16.86-7.91l36.59,20A8.08,8.08,0,0,1,168.6,148v44.35a13.33,13.33,0,0,1,3.63,9.31c0,6.91-4.72,12.52-10.46,12.52s-10.54-5.61-10.54-12.52a13.46,13.46,0,0,1,4.22-9.91Zm-54.21,21.52c-5,0-9.1-4.1-10.2-9.61L75.61,194v69.18h0a9.09,9.09,0,0,1-.93,3.9c-1.77,3.71-5.81,5-8.93,2.91L4.54,228.25A8.05,8.05,0,0,1,1,221.34V154.47A98.39,98.39,0,0,0,14.07,156v60.87l48.39,32.93V181.2c0-4.31,2.95-7.81,6.58-7.81a5.91,5.91,0,0,1,3.2,1l24.53,15.22a8.68,8.68,0,0,1,4.47-1.2c5.82,0,10.46,5.5,10.46,12.41s-4.64,12.41-10.46,12.41ZM84.72,140.46,133.19,167a8,8,0,0,1,3.8,7h0v76.18l50.08-32V105.62a50,50,0,0,1,13.06,3.5V222.74h0a8.14,8.14,0,0,1-3.46,6.91l-62.8,40.15a5.47,5.47,0,0,1-3.46,1.2c-3.63,0-6.58-3.51-6.58-7.81V179L66.34,147.46c6.24-2.1,12.39-4.5,18.38-7Z"/></clipPath></defs><path class="cls-2" d="M155.45,191.71V153L67.94,105a8,8,0,0,1-3.79-7h0V21.83l-50.08,32v163l48.39,32.93V181.2c0-4.31,2.95-7.81,6.58-7.81a5.91,5.91,0,0,1,3.2,1l24.53,15.22a8.68,8.68,0,0,1,4.47-1.2c5.82,0,10.46,5.5,10.46,12.41s-4.64,12.41-10.46,12.41c-5,0-9.1-4.1-10.2-9.61L75.61,194v69.18h0a9.09,9.09,0,0,1-.93,3.9c-1.77,3.71-5.81,5-8.93,2.91L4.54,228.25A8.05,8.05,0,0,1,1,221.34V49.26H1a8,8,0,0,1,3.46-6.81L67.27,2.21A5.48,5.48,0,0,1,70.72,1c3.63,0,6.58,3.51,6.58,7.81V93l87.09,47.65A8.08,8.08,0,0,1,168.6,148v44.35a13.33,13.33,0,0,1,3.63,9.31c0,6.91-4.72,12.52-10.46,12.52s-10.54-5.61-10.54-12.52a13.46,13.46,0,0,1,4.22-9.91ZM45.68,80.29V119L133.19,167a8,8,0,0,1,3.8,7h0v76.18l50.08-32v-163l-48.4-32.93V90.8c0,4.31-2.95,7.81-6.57,7.81a5.94,5.94,0,0,1-3.21-1L104.36,82.39a8.68,8.68,0,0,1-4.47,1.2c-5.82,0-10.45-5.5-10.45-12.41s4.63-12.41,10.45-12.41c5,0,9.11,4.1,10.2,9.61L125.52,78V8.81h.09a9,9,0,0,1,.84-3.9c1.77-3.7,5.82-5,8.93-2.9l61.21,41.74a8,8,0,0,1,3.54,6.91V222.74h0a8.14,8.14,0,0,1-3.46,6.91l-62.8,40.15a5.47,5.47,0,0,1-3.46,1.2c-3.63,0-6.58-3.51-6.58-7.81V179L36.75,131.34a8,8,0,0,1-4.22-7.3V79.69a13.33,13.33,0,0,1-3.63-9.31C28.9,63.47,33.63,58,39.44,58S49.9,63.47,49.9,70.38a13.46,13.46,0,0,1-4.22,9.91Z" transform="translate(11.31 -1)"/><g class="cls-3"><polyline class="cls-2" points="25.8 299.33 24.28 291.02 234.63 238.36 236.06 246.67"/><polyline class="cls-2" points="24.36 291.32 24.2 290.42 234.46 237.76 234.63 238.56"/><polyline class="cls-2" points="24.28 290.72 24.11 289.82 234.37 237.16 234.54 238.06"/><polyline class="cls-2" points="24.11 290.12 23.94 289.22 234.29 236.56 234.46 237.46"/><polyline class="cls-2" points="24.03 289.52 23.86 288.62 234.21 235.96 234.37 236.86"/><polyline class="cls-2" points="23.94 288.92 23.77 288.02 234.04 235.36 234.21 236.26"/><polyline class="cls-2" points="23.86 288.32 23.69 287.52 233.95 234.75 234.12 235.66"/><polyline class="cls-2" points="23.69 287.82 23.61 286.91 233.87 234.16 234.04 235.06"/><polyline class="cls-2" points="23.61 287.21 23.44 286.31 233.78 233.66 233.95 234.46"/><polyline class="cls-2" points="23.52 286.61 23.35 285.71 233.7 233.06 233.78 233.96"/><polyline class="cls-2" points="23.44 286.01 23.27 285.11 233.53 232.46 233.7 233.35"/><polyline class="cls-2" points="23.27 285.41 23.18 284.51 233.45 231.86 233.62 232.75"/><polyline class="cls-2" points="23.18 284.81 23.02 283.91 233.36 231.25 233.53 232.16"/><polyline class="cls-2" points="23.1 284.21 22.93 283.41 233.28 230.65 233.36 231.56"/><polyline class="cls-2" points="23.02 283.61 22.85 282.81 233.11 230.05 233.28 230.95"/><polyline class="cls-2" points="22.85 283.11 22.76 282.21 233.03 229.55 233.19 230.35"/><polyline class="cls-2" points="22.76 282.51 22.59 281.61 232.94 228.95 233.11 229.85"/><polyline class="cls-2" points="22.68 281.91 22.51 281.01 232.85 228.35 232.94 229.25"/><polyline class="cls-2" points="22.59 281.31 22.43 280.41 232.69 227.75 232.85 228.65"/><polyline class="cls-2" points="22.51 280.71 22.34 279.81 232.6 227.15 232.77 228.05"/><polyline class="cls-2" points="22.34 280.11 22.17 279.3 232.52 226.55 232.69 227.45"/><polyline class="cls-2" points="22.26 279.5 22.09 278.7 232.43 225.95 232.6 226.85"/><polyline class="cls-2" points="22.17 279 22 278.1 232.26 225.45 232.43 226.25"/><polyline class="cls-2" points="22.09 278.4 21.92 277.5 232.18 224.85 232.35 225.65"/><polyline class="cls-2" points="21.92 277.81 21.84 276.9 232.1 224.25 232.26 225.15"/><polyline class="cls-2" points="21.84 277.2 21.67 276.3 232.01 223.64 232.18 224.55"/><polyline class="cls-2" points="21.75 276.6 21.58 275.7 231.84 223.04 232.01 223.95"/><polyline class="cls-2" points="21.67 276 21.5 275.1 231.76 222.44 231.93 223.34"/><polyline class="cls-2" points="21.5 275.4 21.41 274.6 231.68 221.84 231.84 222.74"/><polyline class="cls-2" points="21.41 274.9 21.24 274 231.59 221.24 231.76 222.14"/><polyline class="cls-2" points="21.33 274.3 21.16 273.4 231.51 220.74 231.59 221.54"/><polyline class="cls-2" points="21.24 273.7 21.08 272.8 231.34 220.14 231.51 221.04"/><polyline class="cls-2" points="21.08 273.1 20.99 272.2 231.25 219.54 231.42 220.44"/><polyline class="cls-2" points="20.99 272.5 20.82 271.6 231.17 218.94 231.34 219.84"/><polyline class="cls-2" points="20.91 271.9 20.74 271 231.09 218.34 231.17 219.24"/><polyline class="cls-2" points="20.82 271.3 20.66 270.5 230.92 217.74 231.09 218.64"/><polyline class="cls-2" points="20.74 270.69 20.57 269.9 230.83 217.14 231 218.04"/><polyline class="cls-2" points="20.57 270.2 20.4 269.3 230.75 216.64 230.92 217.44"/><polyline class="cls-2" points="20.49 269.6 20.32 268.69 230.66 216.03 230.83 216.94"/><polyline class="cls-2" points="20.4 269 20.23 268.09 230.5 215.44 230.66 216.34"/><polyline class="cls-2" points="20.32 268.39 20.15 267.49 230.41 214.84 230.58 215.74"/><polyline class="cls-2" points="20.15 267.79 19.98 266.89 230.33 214.24 230.5 215.13"/><polyline class="cls-2" points="20.07 267.19 19.9 266.39 230.24 213.63 230.41 214.54"/><polyline class="cls-2" points="19.98 266.59 19.81 265.79 230.08 213.03 230.24 213.94"/><polyline class="cls-2" points="19.9 266.09 19.73 265.19 229.99 212.53 230.16 213.34"/><polyline class="cls-2" points="19.73 265.49 19.64 264.59 229.91 211.93 230.08 212.73"/><polyline class="cls-2" points="19.64 264.89 19.48 263.99 229.82 211.33 229.99 212.23"/><polyline class="cls-2" points="19.56 264.29 19.39 263.39 229.74 210.73 229.82 211.63"/><polyline class="cls-2" points="19.48 263.69 19.31 262.79 229.57 210.13 229.74 211.03"/><polyline class="cls-2" points="19.31 263.09 19.22 262.19 229.48 209.53 229.65 210.43"/><polyline class="cls-2" points="19.22 262.49 19.05 261.69 229.4 208.93 229.57 209.83"/><polyline class="cls-2" points="19.14 261.99 18.97 261.08 229.31 208.33 229.4 209.23"/><polyline class="cls-2" points="19.05 261.39 18.89 260.49 229.15 207.83 229.31 208.63"/><polyline class="cls-2" points="18.89 260.79 18.8 259.88 229.06 207.23 229.23 208.13"/><polyline class="cls-2" points="18.8 260.18 18.63 259.28 228.98 206.63 229.15 207.53"/><polyline class="cls-2" points="18.72 259.58 18.55 258.68 228.89 206.03 228.98 206.93"/><polyline class="cls-2" points="18.63 258.98 18.46 258.08 228.72 205.43 228.89 206.33"/><polyline class="cls-2" points="18.55 258.38 18.38 257.58 228.64 204.82 228.81 205.73"/><polyline class="cls-2" points="18.38 257.78 18.21 256.98 228.56 204.22 228.72 205.12"/><polyline class="cls-2" points="18.3 257.28 18.13 256.38 228.47 203.72 228.64 204.52"/><polyline class="cls-2" points="18.21 256.68 18.04 255.78 228.3 203.12 228.47 203.92"/><polyline class="cls-2" points="18.13 256.08 17.96 255.18 228.22 202.52 228.39 203.42"/><polyline class="cls-2" points="17.96 255.48 17.79 254.58 228.14 201.92 228.3 202.82"/><polyline class="cls-2" points="17.87 254.88 17.7 253.98 228.05 201.32 228.22 202.22"/><polyline class="cls-2" points="17.79 254.28 17.62 253.38 227.88 200.72 228.05 201.62"/><polyline class="cls-2" points="17.7 253.68 17.54 252.88 227.8 200.12 227.97 201.02"/><polyline class="cls-2" points="17.54 253.18 17.45 252.28 227.71 199.62 227.88 200.42"/><polyline class="cls-2" points="17.45 252.58 17.28 251.68 227.63 199.02 227.8 199.82"/><polyline class="cls-2" points="17.37 251.98 17.2 251.07 227.55 198.42 227.63 199.32"/><polyline class="cls-2" points="17.28 251.38 17.11 250.47 227.38 197.82 227.55 198.72"/><polyline class="cls-2" points="17.11 250.78 17.03 249.87 227.29 197.22 227.46 198.12"/><polyline class="cls-2" points="17.03 250.17 16.86 249.27 227.21 196.62 227.38 197.52"/><polyline class="cls-2" points="16.95 249.57 16.78 248.77 227.12 196.01 227.21 196.92"/><polyline class="cls-2" points="16.86 249.07 16.69 248.17 226.96 195.41 227.12 196.31"/><polyline class="cls-2" points="16.78 248.47 16.61 247.57 226.87 194.92 227.04 195.72"/><polyline class="cls-2" points="16.61 247.87 16.44 246.97 226.79 194.31 226.96 195.22"/><polyline class="cls-2" points="16.52 247.27 16.36 246.37 226.7 193.71 226.79 194.61"/><polyline class="cls-2" points="16.44 246.67 16.27 245.77 226.53 193.11 226.7 194.01"/><polyline class="cls-2" points="16.36 246.07 16.19 245.17 226.45 192.51 226.62 193.41"/><polyline class="cls-2" points="16.19 245.47 16.02 244.67 226.36 191.91 226.53 192.81"/><polyline class="cls-2" points="16.1 244.87 15.93 244.07 226.28 191.31 226.45 192.21"/><polyline class="cls-2" points="16.02 244.37 15.85 243.47 226.11 190.81 226.28 191.61"/><polyline class="cls-2" points="15.93 243.77 15.77 242.87 226.03 190.21 226.19 191.01"/><polyline class="cls-2" points="15.77 243.17 15.68 242.26 225.94 189.61 226.11 190.51"/><polyline class="cls-2" points="15.68 242.56 15.51 241.66 225.86 189.01 226.03 189.91"/><polyline class="cls-2" points="15.6 241.96 15.43 241.06 225.77 188.41 225.86 189.31"/><polyline class="cls-2" points="15.51 241.36 15.34 240.46 225.61 187.81 225.77 188.71"/><polyline class="cls-2" points="15.34 240.76 15.26 239.96 225.52 187.21 225.69 188.11"/><polyline class="cls-2" points="15.26 240.26 15.09 239.36 225.44 186.71 225.61 187.51"/><polyline class="cls-2" points="15.18 239.66 15.01 238.76 225.35 186.1 225.44 186.91"/><polyline class="cls-2" points="15.09 239.06 14.92 238.16 225.18 185.5 225.35 186.41"/><polyline class="cls-2" points="14.92 238.46 14.84 237.56 225.1 184.9 225.27 185.8"/><polyline class="cls-2" points="14.84 237.86 14.67 236.96 225.02 184.3 225.18 185.2"/><polyline class="cls-2" points="14.75 237.26 14.59 236.36 224.93 183.7 225.02 184.6"/><polyline class="cls-2" points="14.67 236.66 14.5 235.86 224.76 183.1 224.93 184"/><polyline class="cls-2" points="14.59 236.16 14.42 235.26 224.68 182.5 224.85 183.4"/><polyline class="cls-4" points="14.42 235.56 14.25 234.66 224.59 182 224.76 182.8"/><polyline class="cls-5" points="14.33 234.96 14.16 234.06 224.51 181.4 224.68 182.3"/><polyline class="cls-6" points="14.25 234.35 14.08 233.46 224.34 180.8 224.51 181.7"/><polyline class="cls-6" points="14.16 233.75 13.99 232.86 224.26 180.2 224.43 181.1"/><polyline class="cls-7" points="13.99 233.16 13.83 232.26 224.17 179.6 224.34 180.5"/><polyline class="cls-8" points="13.91 232.56 13.74 231.75 224.09 179 224.26 179.9"/><polyline class="cls-8" points="13.83 231.96 13.66 231.15 223.92 178.4 224.09 179.3"/><polyline class="cls-9" points="13.74 231.45 13.57 230.55 223.84 177.9 224 178.7"/><polyline class="cls-9" points="13.57 230.85 13.49 229.95 223.75 177.29 223.92 178.09"/><polyline class="cls-10" points="13.49 230.25 13.32 229.35 223.67 176.69 223.84 177.59"/><polyline class="cls-10" points="13.4 229.65 13.23 228.75 223.58 176.09 223.67 177"/><polyline class="cls-11" points="13.32 229.05 13.15 228.15 223.41 175.49 223.58 176.4"/><polyline class="cls-11" points="13.15 228.45 13.07 227.55 223.33 174.89 223.5 175.79"/><polyline class="cls-12" points="13.07 227.85 12.9 227.05 223.25 174.29 223.41 175.19"/><polyline class="cls-12" points="12.98 227.35 12.81 226.45 223.16 173.69 223.25 174.59"/><polyline class="cls-13" points="12.9 226.75 12.73 225.85 222.99 173.19 223.16 173.99"/><polyline class="cls-13" points="12.73 226.15 12.65 225.25 222.91 172.59 223.07 173.49"/><polyline class="cls-14" points="12.65 225.55 12.48 224.65 222.82 171.99 222.99 172.89"/><polyline class="cls-14" points="12.56 224.95 12.39 224.05 222.74 171.39 222.82 172.29"/><polyline class="cls-15" points="12.48 224.35 12.31 223.44 222.57 170.79 222.74 171.69"/><polyline class="cls-15" points="12.39 223.75 12.22 222.94 222.49 170.19 222.66 171.09"/><polyline class="cls-16" points="12.22 223.24 12.06 222.34 222.4 169.59 222.57 170.49"/><polyline class="cls-17" points="12.14 222.64 11.97 221.74 222.32 169.09 222.49 169.89"/><polyline class="cls-17" points="12.06 222.04 11.89 221.14 222.15 168.49 222.32 169.39"/><polyline class="cls-18" points="11.97 221.44 11.8 220.54 222.06 167.88 222.23 168.79"/><polyline class="cls-18" points="11.8 220.84 11.72 219.94 221.98 167.28 222.15 168.19"/><polyline class="cls-19" points="11.72 220.24 11.55 219.34 221.9 166.68 222.06 167.59"/><polyline class="cls-19" points="11.63 219.64 11.46 218.84 221.73 166.08 221.9 166.98"/><polyline class="cls-20" points="11.55 219.04 11.38 218.24 221.64 165.48 221.81 166.38"/><polyline class="cls-20" points="11.38 218.54 11.3 217.64 221.56 164.98 221.73 165.78"/><polyline class="cls-21" points="11.3 217.94 11.13 217.04 221.47 164.38 221.64 165.18"/><polyline class="cls-21" points="11.21 217.34 11.04 216.44 221.39 163.78 221.47 164.68"/><polyline class="cls-22" points="11.13 216.74 10.96 215.84 221.22 163.18 221.39 164.08"/><polyline class="cls-22" points="10.96 216.13 10.88 215.24 221.14 162.58 221.31 163.48"/><polyline class="cls-23" points="10.88 215.54 10.71 214.64 221.06 161.98 221.22 162.88"/><polyline class="cls-23" points="10.79 214.94 10.62 214.13 220.97 161.38 221.06 162.28"/><polyline class="cls-24" points="10.71 214.44 10.54 213.54 220.8 160.78 220.97 161.68"/><polyline class="cls-24" points="10.62 213.84 10.46 212.94 220.72 160.28 220.89 161.08"/><polyline class="cls-25" points="10.46 213.24 10.29 212.33 220.63 159.68 220.8 160.58"/><polyline class="cls-26" points="10.37 212.63 10.2 211.73 220.55 159.07 220.72 159.98"/><polyline class="cls-26" points="10.29 212.03 10.12 211.13 220.38 158.47 220.55 159.38"/><polyline class="cls-27" points="10.2 211.43 10.03 210.53 220.29 157.88 220.46 158.78"/><polyline class="cls-28" points="10.03 210.83 9.86 210.03 220.21 157.28 220.38 158.18"/><polyline class="cls-29" points="9.95 210.23 9.78 209.43 220.13 156.67 220.29 157.57"/><polyline class="cls-29" points="9.86 209.73 9.7 208.83 219.96 156.17 220.13 156.97"/><polyline class="cls-30" points="9.78 209.13 9.61 208.23 219.87 155.57 220.04 156.47"/><polyline class="cls-31" points="9.61 208.53 9.53 207.63 219.79 154.97 219.96 155.87"/><polyline class="cls-32" points="9.53 207.93 9.36 207.03 219.7 154.37 219.87 155.27"/><polyline class="cls-32" points="9.44 207.33 9.27 206.43 219.62 153.77 219.7 154.67"/><polyline class="cls-33" points="9.36 206.73 9.19 205.93 219.45 153.17 219.62 154.07"/><polyline class="cls-34" points="9.19 206.13 9.11 205.33 219.37 152.57 219.54 153.47"/><polyline class="cls-35" points="9.11 205.63 8.94 204.72 219.28 152.07 219.45 152.87"/><polyline class="cls-35" points="9.02 205.02 8.85 204.12 219.2 151.47 219.28 152.27"/><polyline class="cls-36" points="8.94 204.42 8.77 203.52 219.03 150.87 219.2 151.77"/><polyline class="cls-37" points="8.77 203.82 8.68 202.92 218.95 150.27 219.11 151.17"/><polyline class="cls-38" points="8.68 203.22 8.51 202.32 218.86 149.66 219.03 150.57"/><polyline class="cls-39" points="8.6 202.62 8.43 201.72 218.78 149.06 218.86 149.97"/><polyline class="cls-39" points="8.51 202.02 8.35 201.22 218.61 148.46 218.78 149.37"/><polyline class="cls-40" points="8.43 201.52 8.26 200.62 218.52 147.86 218.69 148.76"/><polyline class="cls-41" points="8.26 200.92 8.09 200.02 218.44 147.36 218.61 148.16"/><polyline class="cls-42" points="8.18 200.32 8.01 199.42 218.36 146.76 218.52 147.66"/><polyline class="cls-42" points="8.09 199.72 7.92 198.82 218.19 146.16 218.36 147.06"/><polyline class="cls-43" points="8.01 199.12 7.84 198.22 218.1 145.56 218.27 146.46"/><polyline class="cls-44" points="7.84 198.52 7.67 197.62 218.02 144.96 218.19 145.86"/><polyline class="cls-45" points="7.76 197.92 7.59 197.12 217.93 144.36 218.1 145.26"/><polyline class="cls-45" points="7.67 197.31 7.5 196.52 217.77 143.76 217.93 144.66"/><polyline class="cls-46" points="7.59 196.81 7.42 195.92 217.68 143.26 217.85 144.06"/><polyline class="cls-47" points="7.42 196.22 7.33 195.31 217.6 142.66 217.77 143.46"/><polyline class="cls-48" points="7.33 195.62 7.17 194.72 217.51 142.06 217.68 142.96"/><polyline class="cls-48" points="7.25 195.01 7.08 194.12 217.43 141.46 217.51 142.36"/><polyline class="cls-49" points="7.17 194.41 7 193.51 217.26 140.85 217.43 141.76"/><polyline class="cls-50" points="7 193.81 6.91 193.01 217.17 140.25 217.34 141.16"/><polyline class="cls-51" points="6.91 193.21 6.74 192.41 217.09 139.65 217.26 140.56"/><polyline class="cls-51" points="6.83 192.71 6.66 191.81 217.01 139.15 217.09 139.96"/><polyline class="cls-52" points="6.74 192.11 6.58 191.21 216.84 138.56 217.01 139.35"/><polyline class="cls-53" points="6.66 191.51 6.49 190.61 216.75 137.95 216.92 138.85"/><polyline class="cls-53" points="6.49 190.91 6.32 190.01 216.67 137.35 216.84 138.25"/><polyline class="cls-54" points="6.41 190.31 6.24 189.41 216.58 136.75 216.67 137.65"/><polyline class="cls-54" points="6.32 189.71 6.16 188.81 216.42 136.15 216.58 137.05"/><polyline class="cls-55" points="6.24 189.11 6.07 188.31 216.33 135.55 216.5 136.45"/><polyline class="cls-55" points="6.07 188.61 5.9 187.71 216.25 134.95 216.42 135.85"/><polyline class="cls-56" points="5.99 188.01 5.82 187.1 216.16 134.45 216.33 135.25"/><polyline class="cls-56" points="5.9 187.41 5.73 186.5 215.99 133.85 216.16 134.75"/><polyline class="cls-57" points="5.82 186.81 5.65 185.91 215.91 133.25 216.08 134.15"/><polyline class="cls-57" points="5.65 186.21 5.56 185.3 215.83 132.65 215.99 133.55"/><polyline class="cls-58" points="5.56 185.6 5.39 184.7 215.74 132.05 215.91 132.95"/><polyline class="cls-58" points="5.48 185 5.31 184.2 215.66 131.45 215.74 132.35"/><polyline class="cls-59" points="5.39 184.4 5.23 183.6 215.49 130.84 215.66 131.75"/><polyline class="cls-59" points="5.23 183.9 5.14 183 215.41 130.34 215.57 131.15"/><polyline class="cls-60" points="5.14 183.3 4.97 182.4 215.32 129.75 215.49 130.54"/><polyline class="cls-60" points="5.06 182.7 4.89 181.8 215.24 129.14 215.32 130.04"/><polyline class="cls-61" points="4.97 182.1 4.8 181.2 215.07 128.54 215.24 129.44"/><polyline class="cls-62" points="4.8 181.5 4.72 180.6 214.98 127.94 215.15 128.84"/><polyline class="cls-62" points="4.72 180.9 4.55 180 214.9 127.34 215.07 128.24"/><polyline class="cls-63" points="4.64 180.3 4.47 179.5 214.81 126.74 214.9 127.64"/><polyline class="cls-63" points="4.55 179.8 4.38 178.9 214.65 126.24 214.81 127.04"/><polyline class="cls-64" points="4.47 179.2 4.3 178.29 214.56 125.64 214.73 126.44"/><polyline class="cls-64" points="4.3 178.6 4.13 177.69 214.48 125.04 214.65 125.94"/><polyline class="cls-65" points="4.21 178 4.05 177.09 214.39 124.44 214.56 125.34"/><polyline class="cls-65" points="4.13 177.4 3.96 176.5 214.22 123.84 214.39 124.74"/><polyline class="cls-66" points="4.05 176.79 3.88 175.89 214.14 123.24 214.31 124.14"/><polyline class="cls-66" points="3.88 176.19 3.71 175.39 214.06 122.64 214.22 123.54"/><polyline class="cls-67" points="3.79 175.69 3.63 174.79 213.97 122.03 214.14 122.94"/><polyline class="cls-67" points="3.71 175.09 3.54 174.19 213.8 121.53 213.97 122.34"/><polyline class="cls-68" points="3.63 174.49 3.46 173.59 213.72 120.93 213.89 121.83"/><polyline class="cls-68" points="3.46 173.89 3.37 172.99 213.63 120.33 213.8 121.23"/><polyline class="cls-69" points="3.37 173.29 3.2 172.39 213.55 119.73 213.72 120.63"/><polyline class="cls-69" points="3.29 172.69 3.12 171.79 213.47 119.13 213.55 120.03"/><polyline class="cls-70" points="3.2 172.09 3.04 171.29 213.3 118.53 213.47 119.43"/><polyline class="cls-71" points="3.04 171.49 2.95 170.69 213.21 117.93 213.38 118.83"/><polyline class="cls-71" points="2.95 170.99 2.78 170.09 213.13 117.43 213.3 118.23"/><polyline class="cls-72" points="2.87 170.39 2.7 169.49 213.04 116.83 213.13 117.63"/><polyline class="cls-73" points="2.78 169.79 2.61 168.89 212.88 116.23 213.04 117.13"/><polyline class="cls-74" points="2.61 169.19 2.53 168.28 212.79 115.63 212.96 116.53"/><polyline class="cls-74" points="2.53 168.59 2.36 167.69 212.71 115.03 212.88 115.93"/><polyline class="cls-75" points="2.44 167.99 2.28 167.08 212.62 114.43 212.71 115.33"/><polyline class="cls-76" points="2.36 167.38 2.19 166.58 212.46 113.83 212.62 114.73"/><polyline class="cls-77" points="2.28 166.88 2.11 165.98 212.37 113.23 212.54 114.13"/><polyline class="cls-77" points="2.11 166.28 1.94 165.38 212.29 112.73 212.46 113.53"/><polyline class="cls-78" points="2.02 165.68 1.85 164.78 212.2 112.12 212.37 113.03"/><polyline class="cls-79" points="1.94 165.08 1.77 164.18 212.03 111.52 212.2 112.43"/><polyline class="cls-80" points="1.85 164.48 1.69 163.58 211.95 110.92 212.12 111.82"/><polyline class="cls-80" points="1.69 163.88 1.6 162.98 211.87 110.32 212.03 111.22"/><polyline class="cls-81" points="1.6 163.28 1.43 162.48 211.78 109.72 211.95 110.62"/><polyline class="cls-82" points="1.52 162.78 1.35 161.88 211.61 109.12 211.78 110.02"/><polyline class="cls-83" points="1.43 162.18 1.26 161.28 211.53 108.62 211.7 109.42"/><polyline class="cls-84" points="1.26 161.58 1.18 160.68 211.44 108.02 211.61 108.92"/><polyline class="cls-84" points="1.18 160.98 1.01 160.08 211.36 107.42 211.53 108.32"/><polyline class="cls-85" points="1.1 160.38 0.93 159.47 211.28 106.82 211.36 107.72"/><polyline class="cls-86" points="1.01 159.78 0.84 158.88 211.1 106.22 211.28 107.12"/><polyline class="cls-87" points="0.84 159.18 0.76 158.38 211.02 105.62 211.19 106.52"/><polyline class="cls-87" points="0.76 158.57 0.59 157.78 210.94 105.02 211.1 105.92"/><polyline class="cls-88" points="0.67 158.07 0.51 157.17 210.85 104.52 210.94 105.32"/><polyline class="cls-89" points="0.59 157.47 0.42 156.57 210.68 103.92 210.85 104.72"/><polyline class="cls-90" points="0.51 156.87 0.34 155.97 210.6 103.31 210.77 104.22"/><polyline class="cls-90" points="0.34 156.27 0.17 155.37 210.51 102.72 210.68 103.62"/><polyline class="cls-91" points="0.25 155.67 0.08 154.77 210.43 102.11 210.6 103.02"/><polyline class="cls-92" points="0.17 155.07 0 154.17 210.26 101.51 210.43 102.42"/><polyline class="cls-93" points="0.08 154.47 0 154.37 210.35 101.72 210.35 101.81"/></g></svg>